<svg xmlns="http://www.w3.org/2000/svg" xmlns:xlink="http://www.w3.org/1999/xlink" version="1.1" baseProfile="tiny" x="0px" y="0px" width="100px" height="100px" viewBox="0 0 100 100" xml:space="preserve">
  <g id="Your_Icon">
    <path fill-rule="evenodd" fill="#ffffff" d="M90 72V36c0 0-36.4 25.4-39.939 26.721C46.58 61.461 10 36 10 36v36c0 5 1.061 6 6 6h68C89.061 78 90 77.121 90 72zM89.939 28.941C89.939 25.301 88.879 24 84 24H16c-5.02 0-6 1.561-6 5.199l0.061 0.561c0 0 36.139 24.881 40 26.24C54.141 54.42 90 29.199 90 29.199L89.939 28.941z"/>
  </g>
</svg>
