<svg xmlns="http://www.w3.org/2000/svg" xmlns:xlink="http://www.w3.org/1999/xlink" version="1.1" id="Your_Icon" x="0px" y="0px" viewBox="0 0 100 100" enable-background="new 0 0 100 100" xml:space="preserve">
  <g>
    <path fill-rule="evenodd" clip-rule="evenodd" fill="#FFFFFF" d="M50 6.133c-24.837 0-44.977 20.136-44.977 44.977 0 19.872 12.887 36.731 30.758 42.679 2.248 0.416 3.073-0.976 3.073-2.164 0-1.072-0.041-4.616-0.061-8.374C26.28 85.973 23.64 77.945 23.64 77.945c-2.046-5.198-4.994-6.581-4.994-6.581 -4.081-2.792 0.308-2.734 0.308-2.734 4.516 0.317 6.895 4.635 6.895 4.635 4.011 6.876 10.522 4.888 13.089 3.739 0.404-2.907 1.569-4.891 2.856-6.014C31.802 69.852 21.3 65.995 21.3 48.761c0-4.91 1.757-8.923 4.635-12.073 -0.467-1.133-2.007-5.708 0.436-11.903 0 0 3.777-1.208 12.372 4.611C42.33 28.4 46.178 27.9 50 27.882c3.822 0.018 7.673 0.517 11.268 1.514 8.585-5.819 12.356-4.611 12.356-4.611 2.448 6.196 0.908 10.77 0.442 11.903 2.884 3.15 4.629 7.162 4.629 12.073 0 17.275-10.522 21.079-20.538 22.192 1.613 1.396 3.051 4.133 3.051 8.329 0 6.018-0.052 10.862-0.052 12.343 0 1.197 0.81 2.6 3.089 2.158 17.862-5.954 30.733-22.808 30.733-42.673C94.977 26.269 74.84 6.133 50 6.133z"/>
    <path fill="#FFFFFF" d="M22.058 70.711c-0.099 0.224-0.451 0.291-0.771 0.137 -0.327-0.147-0.509-0.452-0.404-0.676 0.097-0.23 0.449-0.294 0.775-0.14C21.985 70.179 22.171 70.487 22.058 70.711L22.058 70.711zM21.504 70.3"/>
    <path fill="#FFFFFF" d="M23.88 72.743c-0.215 0.199-0.634 0.106-0.919-0.208 -0.295-0.313-0.349-0.733-0.132-0.935 0.221-0.199 0.628-0.105 0.922 0.208C24.047 72.125 24.104 72.541 23.88 72.743L23.88 72.743zM23.451 72.282"/>
    <path fill="#FFFFFF" d="M25.653 75.333c-0.276 0.192-0.727 0.012-1.005-0.388 -0.276-0.4-0.276-0.88 0.006-1.072 0.279-0.192 0.723-0.019 1.005 0.377C25.935 74.657 25.935 75.137 25.653 75.333L25.653 75.333zM25.653 75.333"/>
    <path fill="#FFFFFF" d="M28.083 77.836c-0.247 0.272-0.772 0.199-1.156-0.172 -0.393-0.362-0.503-0.877-0.256-1.149 0.25-0.272 0.778-0.196 1.165 0.172C28.227 77.049 28.345 77.567 28.083 77.836L28.083 77.836zM28.083 77.836"/>
    <path fill="#FFFFFF" d="M31.434 79.289c-0.109 0.352-0.615 0.512-1.124 0.362 -0.509-0.154-0.842-0.567-0.739-0.922 0.105-0.355 0.614-0.522 1.127-0.362C31.207 78.521 31.54 78.93 31.434 79.289L31.434 79.289zM31.434 79.289"/>
    <path fill="#FFFFFF" d="M35.115 79.558c0.012 0.371-0.42 0.679-0.954 0.685 -0.538 0.012-0.973-0.288-0.979-0.653 0-0.375 0.423-0.679 0.96-0.688C34.677 78.892 35.115 79.19 35.115 79.558L35.115 79.558zM35.115 79.558"/>
    <path fill="#FFFFFF" d="M38.541 78.975c0.064 0.362-0.308 0.733-0.839 0.832 -0.522 0.096-1.005-0.128-1.072-0.487 -0.065-0.371 0.313-0.743 0.835-0.839C37.996 78.39 38.473 78.607 38.541 78.975L38.541 78.975zM38.541 78.975"/>
  </g>
</svg>
