<svg xmlns="http://www.w3.org/2000/svg" xmlns:xlink="http://www.w3.org/1999/xlink" version="1.1" id="Layer_1" x="0px" y="0px" width="100px" height="100px" viewBox="0 0 100 100" enable-background="new 0 0 100 100" xml:space="preserve">
  <path fill="#ffffff" d="M19.765 97.5h59.427c4.265 0 7.723-3.459 7.723-7.724V10.225c0-4.266-3.458-7.725-7.723-7.725H19.765c-4.266 0-7.725 3.459-7.725 7.725v79.552C12.041 94.042 15.499 97.5 19.765 97.5zM37.675 39.814c0.427-1.572 2.328-2.735 4.076-3.703l0.132-0.073c0.542-0.3 1.525-0.844 2.428-1.207l0.306-0.118c0.75-0.284 1.686-0.642 1.778-1.583 0.072-0.729-0.297-1.196-0.724-1.739 -0.103-0.132-0.213-0.271-0.32-0.42 -1.701-2.333-2.439-4.749-2.26-7.386 0.224-3.362 2.337-5.678 5.517-6.043 0.333-0.039 0.67-0.058 0.998-0.058 1.902 0 3.51 0.653 4.647 1.887 1.296 1.404 1.878 3.435 1.68 5.873 -0.109 1.347-0.671 3.093-1.431 4.447 -0.19 0.341-0.444 0.669-0.71 1.017 -0.683 0.888-1.374 1.788-1.092 2.868 0.201 0.763 1.612 1.283 2.545 1.626l0.151 0.057c0.174 0.065 0.326 0.122 0.446 0.175 1.642 0.723 4.7 2.067 5.425 4.228 0.174 0.51 0.317 1.834-0.003 2.654 -1.034 2.682-6.826 3.027-11.756 3.027 -2.164 0-4.663-0.034-6.922-0.452 -1.554-0.288-3.728-0.838-4.64-2.292C37.464 41.832 37.375 40.922 37.675 39.814zM26.394 60.677h46.168c1.063 0 1.924 0.86 1.924 1.923 0 1.063-0.861 1.924-1.924 1.924H26.394c-1.062 0-1.924-0.86-1.924-1.924C24.47 61.538 25.332 60.677 26.394 60.677zM26.394 69.674h46.168c1.063 0 1.924 0.86 1.924 1.924 0 1.063-0.861 1.924-1.924 1.924H26.394c-1.062 0-1.924-0.861-1.924-1.924C24.47 70.535 25.332 69.674 26.394 69.674zM26.394 78.671h46.168c1.063 0 1.924 0.86 1.924 1.923 0 1.063-0.861 1.923-1.924 1.923H26.394c-1.062 0-1.924-0.859-1.924-1.923C24.47 79.532 25.332 78.671 26.394 78.671z"/>
</svg>
