<svg xmlns="http://www.w3.org/2000/svg" xmlns:xlink="http://www.w3.org/1999/xlink" version="1.1" id="Your_Icon" x="0px" y="0px" viewBox="0 0 100 100" enable-background="new 0 0 100 100" xml:space="preserve">
  <path fill="#FFFFFF" d="M94.346 22.196c-3.31 1.475-6.849 2.458-10.551 2.884 3.801-2.261 6.717-5.865 8.094-10.158 -3.572 2.097-7.504 3.637-11.698 4.456 -3.342-3.572-8.126-5.8-13.402-5.8 -10.158 0-18.383 8.225-18.383 18.383 0 1.442 0.164 2.851 0.492 4.194 -15.303-0.786-28.836-8.094-37.913-19.202 -1.573 2.72-2.49 5.865-2.49 9.241 0 6.39 3.244 11.993 8.192 15.303 -3.015-0.098-5.833-0.918-8.323-2.294 0 0.066 0 0.164 0 0.229 0 8.913 6.324 16.318 14.746 18.022 -1.54 0.426-3.178 0.655-4.85 0.655 -1.18 0-2.327-0.131-3.473-0.328 2.327 7.307 9.142 12.616 17.17 12.78 -6.291 4.915-14.221 7.864-22.839 7.864 -1.475 0-2.949-0.098-4.391-0.262 8.126 5.21 17.793 8.258 28.18 8.258 33.817 0 52.298-28.017 52.298-52.298 0-0.786-0.033-1.606-0.066-2.392C88.776 29.11 91.889 25.866 94.346 22.196z"/>
</svg>
